<?xml version="1.0" encoding="UTF-8"?>
<svg id="Capa_2" data-name="Capa 2" xmlns="http://www.w3.org/2000/svg" viewBox="0 0 572.93 256.28">
  <defs>
    <style>
      .cls-1 {
        fill: #fff;
      }
    </style>
  </defs>
  <g id="Capa_1-2" data-name="Capa 1">
    <g>
      <path class="cls-1" d="M570.53,6.75c-2.57-3.9-8.13-6.75-12.82-6.13-8.84,1.15-14.6,10.2-11.76,18.71,2.62,7.83,11.5,11.32,18.93,8.11,7.99-3.45,10.36-13.53,5.64-20.68ZM547.4,15.96c-.72-5.53,3.72-12,9.35-12.96,10.54-1.8,17.5,9.16,12.04,18.26-5.63,9.38-19.95,5.71-21.38-5.3Z"/>
      <path class="cls-1" d="M400.99,50.35h72.43v91.08c-.5-.2-1.07.48-1.2.48h-24.22v-69.03h-47.01v69.03h-25.42v-69.03h-18.71v-22.53h18.71v-15.1c0-.15.42-2.2.52-2.83,3.64-23.25,24.22-32.42,47.19-32.42v24.94s-5.75-.18-7.66,0c-4.36.4-7.94,1.01-10.78,4.43-1.66,1.99-3.85,8.7-3.85,11.15v9.83Z"/>
      <path class="cls-1" d="M88.26,46.04h-26.38c.17-6.31-2.85-11.6-8.78-14-12.04-4.89-26.66,2.16-24.22,16.53.97,5.71,8.94,9.28,13.81,11.13,11.8,4.49,22.19,6.12,33.25,13.27,15.11,9.77,19.89,27.98,14.25,44.75-8.84,26.27-42.85,31.53-65.86,22.17C8.67,133.51.59,119.74,0,103.08h26.86c1.68,11.17,10.2,17.43,21.37,16.8,6.33-.36,15.21-3.89,16.42-10.91,1.89-10.99-5.53-15.81-14.64-19.2-10.71-3.99-22.07-5.99-31.94-12.18C2.99,68.11-1.78,50.86,3.11,34.05,9.78,11.15,35.88,2.44,57.57,7.44c18.72,4.31,31.6,18.92,30.69,38.6Z"/>
      <path class="cls-1" d="M282.99,50.35l19.19,53.21c.9-.33,1.31-1.57,1.67-2.4,6.71-15.57,12.13-32.54,18.23-48.42.33-.85.78-1.76,1.44-2.4h26.62l-54.2,136.14h-27.82l20.62-51.5-33.57-84.65h27.82Z"/>
      <path class="cls-1" d="M527.14,16.32v32.84c0,.09-.69.62-.48,1.2h19.67v22.53h-18.95c-.05,0-.72.67-.72.72v67.11c0,.1.36.25.42.48,0,.13-.6.72-.66.72h-24.7l-.48-69.03h-16.31v-22.53h16.79c.21-.58-.48-1.11-.48-1.2V16.32h25.9Z"/>
      <path class="cls-1" d="M135.26,16.32v32.84c0,.09-.69.62-.48,1.2h19.67v22.53h-19.19v68.31c0,.05-.67.72-.72.72h-23.98c-.05,0-.72-.67-.72-.72v-68.31h-15.11c-1.62-1.31-.31-3.41-.23-5.02.28-5.79-.23-11.71-.01-17.51h15.83c.11-.38-.48-.58-.48-.72V16.32h25.42Z"/>
      <path class="cls-1" d="M363.43,164.54l179.28-.08c1.45.21,3.21,1.77,3.52,3.19.42,1.91.39,11.69.08,13.8-.34,2.32-2.15,4.06-4.53,4.1h-177.01c-2.42-.27-4.09-.82-4.81-3.35-.47-1.67-.51-12.24-.13-14.07s1.83-3.05,3.6-3.6Z"/>
      <path class="cls-1" d="M449.09,4.47c6.96-6.43,19.26-4.3,24.25,3.53,9.19,14.42-7.04,31.31-21.66,23.09-9.84-5.53-10.74-19.08-2.59-26.62Z"/>
      <path class="cls-1" d="M251.35,73.61c.1-6.67.55-15.12,0-21.61-.06-.73-.04-1.21-.74-1.66h-24.7v9.59c-1.16.28-.78-.26-1.07-.62-11.02-14.09-35.21-12.91-48.98-3.62-37.09,25.04-20.78,93.16,29.15,88.09,6.57-.67,15.77-5.65,19.84-10.85.29-.37-.09-.91,1.07-.62v8.87c0,.05.67.72.72.72h24.22c.09-3.75-.11-7.53-.01-11.28.33-12.21-.1-24.57-.01-36.92.05-6.63.41-13.56.52-20.1ZM213.6,116.9c-14.19,7.94-29.76-3.36-31.29-18.41-1.1-10.76,6.3-23.45,17.59-25.01,25.92-3.59,33.89,32.13,13.71,43.42Z"/>
      <path class="cls-1" d="M365.9,221l-1.43,4.32h-4.86l7.02-19.28h6.13l7.02,19.28h-4.91l-1.43-4.32h-7.53ZM369.68,209.88h-.11l-2.57,7.78h5.29l-2.62-7.78Z"/>
      <path class="cls-1" d="M400.91,208.45c1.77,1.6,2.66,4.01,2.66,7.24s-.89,5.63-2.66,7.24c-1.77,1.6-4.18,2.4-7.22,2.4h-7.8v-19.28h7.8c3.04,0,5.45.8,7.22,2.4ZM397.37,220.34c1-.95,1.5-2.5,1.5-4.66s-.5-3.71-1.5-4.66c-1-.94-2.46-1.42-4.39-1.42h-2.51v12.15h2.51c1.93,0,3.39-.47,4.39-1.42Z"/>
      <path class="cls-1" d="M420.43,225.32h-5.51l-6.83-19.28h4.89l4.7,14.53h.11l4.67-14.53h4.83l-6.86,19.28Z"/>
      <path class="cls-1" d="M436.55,221l-1.43,4.32h-4.86l7.02-19.28h6.13l7.02,19.28h-4.91l-1.43-4.32h-7.53ZM440.33,209.88h-.11l-2.57,7.78h5.29l-2.62-7.78Z"/>
      <path class="cls-1" d="M468.63,225.32l-7.78-13.18h-.11v13.18h-4.21v-19.28h5.24l7.64,12.93h.11v-12.93h4.21v19.28h-5.1Z"/>
      <path class="cls-1" d="M497.56,222.18c-.78,1.09-1.81,1.96-3.08,2.61-1.27.65-2.73.97-4.39.97-1.87,0-3.53-.4-4.97-1.2-1.44-.8-2.56-1.96-3.36-3.47-.8-1.51-1.2-3.31-1.2-5.4s.4-3.89,1.2-5.4,1.92-2.67,3.36-3.47c1.44-.8,3.1-1.2,4.97-1.2,1.53,0,2.91.29,4.13.86,1.22.58,2.23,1.33,3.02,2.25.79.93,1.33,1.93,1.62,3.01l-4.56.65c-.31-.92-.82-1.67-1.55-2.24-.73-.58-1.62-.86-2.66-.86-1.42,0-2.59.53-3.5,1.59-.91,1.06-1.36,2.66-1.36,4.81s.45,3.74,1.36,4.81c.91,1.06,2.08,1.59,3.5,1.59,1.17,0,2.13-.36,2.88-1.08.75-.72,1.25-1.68,1.5-2.89l4.62.46c-.23,1.31-.74,2.52-1.53,3.6Z"/>
      <path class="cls-1" d="M519.54,213.71v3.46h-9.29v4.48h9.77v3.67h-14.39v-19.28h14.39v3.56h-9.77v4.1h9.29Z"/>
      <path class="cls-1" d="M542.31,208.45c1.77,1.6,2.66,4.01,2.66,7.24s-.89,5.63-2.66,7.24c-1.77,1.6-4.18,2.4-7.22,2.4h-7.8v-19.28h7.8c3.04,0,5.45.8,7.22,2.4ZM538.77,220.34c1-.95,1.5-2.5,1.5-4.66s-.5-3.71-1.5-4.66c-1-.94-2.46-1.42-4.39-1.42h-2.51v12.15h2.51c1.93,0,3.39-.47,4.39-1.42Z"/>
      <path class="cls-1" d="M363.24,244.72h9.29v3.46h-9.29v7.67h-4.62v-19.28h14.39v3.56h-9.77v4.59Z"/>
      <path class="cls-1" d="M397.16,237.34c1.46.8,2.6,1.96,3.42,3.47s1.23,3.31,1.23,5.4-.41,3.89-1.23,5.4c-.82,1.51-1.96,2.67-3.42,3.47s-3.13,1.2-5.02,1.2-3.54-.4-4.99-1.2-2.6-1.96-3.42-3.47c-.82-1.51-1.23-3.31-1.23-5.4s.41-3.89,1.23-5.4,1.96-2.67,3.42-3.47c1.46-.8,3.12-1.2,4.99-1.2s3.56.4,5.02,1.2ZM395.75,251.02c.92-1.06,1.38-2.66,1.38-4.81s-.46-3.74-1.38-4.81c-.92-1.06-2.12-1.59-3.62-1.59s-2.67.53-3.59,1.59c-.92,1.06-1.38,2.66-1.38,4.81s.46,3.74,1.38,4.81c.92,1.06,2.12,1.59,3.59,1.59s2.7-.53,3.62-1.59Z"/>
      <path class="cls-1" d="M420.54,249.07h-3.48v6.78h-4.59v-19.28h9.64c2.25,0,4,.55,5.27,1.66,1.26,1.11,1.89,2.63,1.89,4.58,0,1.42-.34,2.63-1.01,3.63s-1.65,1.71-2.93,2.15l4.43,7.26h-5.35l-3.86-6.78ZM421.37,245.51c1.04,0,1.84-.24,2.39-.72.55-.48.82-1.14.82-1.98s-.27-1.5-.82-1.97c-.55-.47-1.35-.7-2.39-.7h-4.32v5.37h4.32Z"/>
      <path class="cls-1" d="M460.68,255.85h-4.29v-13.88h-.11l-4.37,13.88h-3.29l-4.35-13.88h-.11v13.88h-4.21v-19.28h6.75l3.59,12.45h.11l3.59-12.45h6.7v19.28Z"/>
      <path class="cls-1" d="M487.93,252.92c-.73,1.12-1.73,1.97-3,2.52-1.27.56-2.72.84-4.36.84s-3.09-.28-4.36-.84c-1.27-.56-2.27-1.4-3-2.52-.73-1.12-1.09-2.51-1.09-4.17v-12.18h4.59v11.75c0,2.84,1.29,4.27,3.86,4.27,1.28,0,2.24-.35,2.89-1.04.65-.69.97-1.77.97-3.23v-11.75h4.59v12.18c0,1.66-.37,3.05-1.09,4.17Z"/>
      <path class="cls-1" d="M500.47,236.57h4.62v15.44h9.94v3.83h-14.55v-19.28Z"/>
      <path class="cls-1" d="M530.82,251.53l-1.43,4.32h-4.86l7.02-19.28h6.13l7.02,19.28h-4.91l-1.43-4.32h-7.53ZM534.6,240.4h-.11l-2.57,7.78h5.29l-2.62-7.78Z"/>
      <path class="cls-1" d="M558.74,16.28h-2.08v4.04h-2.74v-11.5h5.75c1.34,0,2.39.33,3.14.99s1.13,1.57,1.13,2.73c0,.85-.2,1.57-.6,2.17-.4.6-.99,1.02-1.75,1.28l2.64,4.33h-3.19l-2.3-4.04ZM559.24,14.16c.62,0,1.1-.14,1.43-.43.33-.28.49-.68.49-1.18s-.16-.9-.49-1.18c-.33-.28-.8-.42-1.43-.42h-2.58v3.21h2.58Z"/>
    </g>
  </g>
</svg>